#define desk_toggled_width 13
#define desk_toggled_height 13
static unsigned char desk_toggled_bits[] = {
 0x00, 0x00, 0x00, 0x00, 0x3C, 0x00, 0x3C, 0x00, 0x3C, 0x00, 0x7C, 0x00,
 0xE0, 0x00, 0xC0, 0x01, 0x80, 0x03, 0x00, 0x07, 0x00, 0x06, 0x00, 0x00,
 0x00, 0x00 };
