#define max_width 13
#define max_height 13
static unsigned char max_bits[] = {
 0xFF, 0x1F, 0xFF, 0x1F, 0x03, 0x18, 0x03, 0x18, 0x03, 0x18, 0x03, 0x18,
 0x03, 0x18, 0x03, 0x18, 0x03, 0x18, 0x03, 0x18, 0x03, 0x18, 0xFF, 0x1F,
 0xFF, 0x1F };
