#define max_toggled_width 13
#define max_toggled_height 13
static unsigned char max_toggled_bits[] = {
 0x00, 0x00, 0xFE, 0x0F, 0xFE, 0x0F, 0x06, 0x0C, 0x06, 0x0C, 0x06, 0x0C,
 0x06, 0x0C, 0x06, 0x0C, 0x06, 0x0C, 0x06, 0x0C, 0xFE, 0x0F, 0xFE, 0x0F,
 0x00, 0x00 };
