#define shade_toggled_width 13
#define shade_toggled_height 13
static unsigned char shade_toggled_bits[] = {
 0xFF, 0x1F, 0xFF, 0x1F, 0x00, 0x00, 0x00, 0x00, 0x00, 0x00, 0x00, 0x00,
 0x00, 0x00, 0x00, 0x00, 0x00, 0x00, 0x00, 0x00, 0x00, 0x00, 0xFF, 0x1F,
 0xFF, 0x1F };
